<svg width="22" height="22" viewBox="0 0 22 22" fill="none" xmlns="http://www.w3.org/2000/svg">
<path d="M4.34387 6.29737V3.15394C4.34387 2.88771 4.12804 2.67188 3.8618 2.67188H2.2555C1.98927 2.67188 1.77344 2.88771 1.77344 3.15394V6.29737" fill="#E5E9EA"/>
<path d="M2.94077 6.29737V2.67188H2.2555C1.98927 2.67188 1.77344 2.88771 1.77344 3.15394V6.29737" fill="#D1D1D1"/>
<path d="M22 6.86985V18.6309C22 19.4372 21.3463 20.0909 20.5399 20.0909H1.46008C0.653727 20.0909 0 19.4372 0 18.6309V6.86985C0 6.0635 0.653727 5.40977 1.46008 5.40977H4.34715C4.96899 5.40977 5.52303 5.016 5.72687 4.42832L6.25982 2.89013C6.46366 2.3024 7.01723 1.9082 7.63954 1.9082H16.1565C16.7784 1.9082 17.332 2.3024 17.5358 2.89013L18.0692 4.42832C18.273 5.01605 18.8266 5.40977 19.4484 5.40977H20.5399C21.3463 5.40977 22 6.0635 22 6.86985Z" fill="#FCB65F"/>
<path d="M2.60498 20.0904H1.46008C0.653727 20.0904 0 19.4366 0 18.6303V6.86926C0 6.06291 0.653727 5.40918 1.46008 5.40918H2.51427V5.41189C1.75012 5.45902 1.1449 6.09346 1.1449 6.86926V18.6303C1.1449 19.4367 1.79863 20.0904 2.60498 20.0904Z" fill="#E29A4B"/>
<path d="M8.78478 1.9082C8.1625 1.9082 7.60889 2.3024 7.40505 2.89013L6.87211 4.42832C6.66827 5.01605 6.11423 5.40977 5.49238 5.40977H4.5127V5.40036C5.06583 5.3375 5.54175 4.9635 5.72716 4.42832L6.26011 2.89013C6.46395 2.3024 7.01752 1.9082 7.63983 1.9082C7.63992 1.9082 8.78478 1.9082 8.78478 1.9082Z" fill="#E29A4B"/>
<path d="M22 9.38379V18.6314C22 19.4378 21.3463 20.0915 20.5399 20.0915H1.46008C0.653727 20.0915 0 19.4378 0 18.6314V9.38379H22Z" fill="#53BCE9"/>
<path d="M2.60498 20.0915H1.46008C0.653727 20.0915 0 19.4377 0 18.6314V9.38379H1.1449V18.6314C1.1449 19.4378 1.79863 20.0915 2.60498 20.0915Z" fill="#36A6CE"/>
<path d="M11.0002 18.7211C14.3599 18.7211 17.0834 15.9976 17.0834 12.6379C17.0834 9.27824 14.3599 6.55469 11.0002 6.55469C7.64054 6.55469 4.91699 9.27824 4.91699 12.6379C4.91699 15.9976 7.64054 18.7211 11.0002 18.7211Z" fill="#E5E9EA"/>
<path d="M15.3011 12.6391C15.3011 13.9057 14.7538 15.0443 13.8823 15.8318C13.1195 16.521 12.1093 16.9408 10.9999 16.9408C9.89091 16.9408 8.88024 16.521 8.11746 15.8318C7.24601 15.0447 6.69824 13.9057 6.69824 12.6391C6.69824 11.3725 7.24601 10.2335 8.11746 9.44687C8.88028 8.75722 9.89091 8.33789 10.9999 8.33789C12.1093 8.33789 13.1195 8.75769 13.8823 9.44687C14.7538 10.234 15.3011 11.3726 15.3011 12.6391Z" fill="#566368"/>
<path d="M14.0405 9.59748C14.9361 10.4931 15.3542 11.6852 15.2949 12.8583C14.1218 12.9176 12.9296 12.4995 12.034 11.6039C11.1385 10.7083 10.7203 9.51623 10.78 8.34348C11.9527 8.2838 13.1449 8.70193 14.0405 9.59748Z" fill="#6F7B7F"/>
<path d="M9.96439 13.6737C10.86 14.5693 11.2781 15.7614 11.2187 16.9345C10.0459 16.9942 8.85318 16.5761 7.95763 15.6805C7.06203 14.7849 6.6439 13.5921 6.70389 12.4197C7.87667 12.3599 9.0688 12.7781 9.96439 13.6737Z" fill="#6F7B7F"/>
<path d="M10.9995 17.2763C8.442 17.2763 6.36133 15.1956 6.36133 12.6381C6.36133 10.0807 8.442 8 10.9995 8C13.5569 8 15.6376 10.0806 15.6376 12.6381C15.6376 15.1956 13.5569 17.2763 10.9995 17.2763ZM10.9995 8.67345C8.81334 8.67345 7.03478 10.452 7.03478 12.6381C7.03478 14.8243 8.81334 16.6028 10.9995 16.6028C13.1856 16.6028 14.9641 14.8243 14.9641 12.6381C14.9641 10.452 13.1856 8.67345 10.9995 8.67345Z" fill="#435054"/>
<path d="M10.9992 10.9111C10.0471 10.9111 9.27246 11.6857 9.27246 12.6379C9.27246 13.59 10.0471 14.3646 10.9992 14.3646C11.9513 14.3646 12.7259 13.59 12.7259 12.6379C12.7259 11.6858 11.9513 10.9111 10.9992 10.9111Z" fill="#435054"/>
<path d="M13.1856 5.07411H15.8317C16.1796 5.07411 16.4617 4.79211 16.4617 4.44419V3.75102C16.4617 3.40314 16.1796 3.12109 15.8317 3.12109H13.1856C12.8377 3.12109 12.5557 3.4031 12.5557 3.75102V4.44419C12.5557 4.79206 12.8377 5.07411 13.1856 5.07411Z" fill="#E5E9EA"/>
<path d="M15.8316 5.4106H13.1854C12.6524 5.4106 12.2188 4.97696 12.2188 4.44393V3.75085C12.2188 3.21782 12.6524 2.78418 13.1854 2.78418H15.8316C16.3646 2.78418 16.7982 3.21782 16.7982 3.75085V4.44398C16.7982 4.977 16.3645 5.4106 15.8316 5.4106ZM13.1854 3.45763C13.0237 3.45763 12.8922 3.58916 12.8922 3.7508V4.44393C12.8922 4.60562 13.0237 4.73711 13.1854 4.73711H15.8316C15.9933 4.73711 16.1247 4.60558 16.1247 4.44393V3.75085C16.1247 3.58916 15.9932 3.45767 15.8316 3.45767C15.8316 3.45763 13.1854 3.45763 13.1854 3.45763Z" fill="#E29A4B"/>
<path d="M4.18249 18.8445C4.85498 18.8445 5.40014 18.2993 5.40014 17.6268C5.40014 16.9543 4.85498 16.4092 4.18249 16.4092C3.51 16.4092 2.96484 16.9543 2.96484 17.6268C2.96484 18.2993 3.51 18.8445 4.18249 18.8445Z" fill="#566368"/>
</svg>
