<svg width="22" height="22" viewBox="0 0 22 22" fill="none" xmlns="http://www.w3.org/2000/svg">
<g clip-path="url(#clip0)">
<path d="M18.4078 6.55445C17.7549 5.98434 17.0143 5.49686 16.2063 5.11035L15.6797 5.49191L16.9412 10.5271L17.4371 10.6587C19.2681 10.1753 19.864 7.82611 18.4078 6.55445Z" fill="#454D58"/>
<path d="M16.6946 15.4458C16.3792 15.0868 15.9765 14.7817 15.4844 14.5607C14.5132 14.1246 13.9157 13.5461 13.9157 12.9053C13.9157 12.2163 14.6052 11.6012 15.7042 11.1567L16.206 10.6584L14.377 4.63577L13.4551 3.95703L12.8101 4.16105C7.03582 3.56748 2.04199 7.67662 2.04199 12.9053C2.04199 19.0887 8.88055 23.342 15.2015 21.1163C16.4842 20.6647 17.2504 19.634 17.4797 18.5015L17.8522 18.181L17.38 15.5988L16.6946 15.4458Z" fill="#454D58"/>
<path d="M4.72741 12.9063C4.72741 8.23327 8.71646 4.45494 13.6864 4.12834L13.4551 3.95801L12.8101 4.16202C7.03582 3.5685 2.04199 7.67764 2.04199 12.9063C2.04199 18.3934 7.42701 22.3598 13.0567 21.6286C8.51438 21.0392 4.72741 17.5076 4.72741 12.9063Z" fill="#262626"/>
<path d="M7.05595 10.3228C7.85433 10.3228 8.50155 9.67562 8.50155 8.87724C8.50155 8.07886 7.85433 7.43164 7.05595 7.43164C6.25757 7.43164 5.61035 8.07886 5.61035 8.87724C5.61035 9.67562 6.25757 10.3228 7.05595 10.3228Z" fill="#F87C68"/>
<path d="M10.9698 8.46205C11.7443 8.46205 12.3722 7.83417 12.3722 7.05964C12.3722 6.28511 11.7443 5.65723 10.9698 5.65723C10.1953 5.65723 9.56738 6.28511 9.56738 7.05964C9.56738 7.83417 10.1953 8.46205 10.9698 8.46205Z" fill="#FFD064"/>
<path d="M7.7696 18.7453C8.54413 18.7453 9.17202 18.1174 9.17202 17.3428C9.17202 16.5683 8.54413 15.9404 7.7696 15.9404C6.99507 15.9404 6.36719 16.5683 6.36719 17.3428C6.36719 18.1174 6.99507 18.7453 7.7696 18.7453Z" fill="#5291D9"/>
<path d="M11.8536 20.0568C12.6281 20.0568 13.256 19.4289 13.256 18.6544C13.256 17.8798 12.6281 17.252 11.8536 17.252C11.0791 17.252 10.4512 17.8798 10.4512 18.6544C10.4512 19.4289 11.0791 20.0568 11.8536 20.0568Z" fill="#95D6A4"/>
<path d="M5.45183 14.9457C6.38634 14.9457 7.1439 14.1881 7.1439 13.2536C7.1439 12.3191 6.38634 11.5615 5.45183 11.5615C4.51733 11.5615 3.75977 12.3191 3.75977 13.2536C3.75977 14.1881 4.51733 14.9457 5.45183 14.9457Z" fill="#FF94D5"/>
<path d="M7.04933 8.87728C7.04933 8.34095 7.34165 7.87314 7.77546 7.62363C7.56354 7.50172 7.31802 7.43164 7.05595 7.43164C6.25755 7.43164 5.61035 8.07888 5.61035 8.87724C5.61035 9.6756 6.25759 10.3228 7.05595 10.3228C7.31797 10.3228 7.5635 10.2528 7.77546 10.1309C7.34165 9.88142 7.04933 9.41362 7.04933 8.87728Z" fill="#EC625E"/>
<path d="M11.0064 7.05964C11.0064 6.54818 11.2802 6.10079 11.6893 5.85583C11.4789 5.7298 11.2328 5.65723 10.9698 5.65723C10.1952 5.65723 9.56738 6.28513 9.56738 7.05964C9.56738 7.83415 10.1952 8.46205 10.9698 8.46205C11.2328 8.46205 11.4789 8.38948 11.6893 8.26345C11.2803 8.01844 11.0064 7.5711 11.0064 7.05964Z" fill="#FFC250"/>
<path d="M7.80617 17.3428C7.80617 16.8314 8.08005 16.384 8.48911 16.139C8.27874 16.013 8.0327 15.9404 7.7696 15.9404C6.99509 15.9404 6.36719 16.5683 6.36719 17.3428C6.36719 18.1174 6.99509 18.7453 7.7696 18.7453C8.03266 18.7453 8.27874 18.6727 8.48911 18.5467C8.08005 18.3016 7.80617 17.8543 7.80617 17.3428Z" fill="#2E82D4"/>
<path d="M11.8901 18.6544C11.8901 18.1429 12.164 17.6955 12.5731 17.4506C12.3627 17.3245 12.1166 17.252 11.8536 17.252C11.079 17.252 10.4512 17.8799 10.4512 18.6544C10.4512 19.4289 11.079 20.0568 11.8536 20.0568C12.1166 20.0568 12.3627 19.9842 12.5731 19.8582C12.164 19.6132 11.8901 19.1658 11.8901 18.6544Z" fill="#78C2A4"/>
<path d="M5.19875 13.2536C5.19875 12.5764 5.59668 11.9925 6.1713 11.722C5.95294 11.6192 5.70913 11.5615 5.45183 11.5615C4.51735 11.5615 3.75977 12.3191 3.75977 13.2536C3.75977 14.1881 4.51731 14.9457 5.45183 14.9457C5.70917 14.9457 5.95294 14.888 6.1713 14.7852C5.59668 14.5147 5.19875 13.9307 5.19875 13.2536Z" fill="#FF72C7"/>
<path d="M16.361 2.28957C16.035 1.09057 14.9261 1.10548 13.9116 0.0957609C13.7351 -0.0798094 13.4532 -0.00315315 13.3899 0.237601C13.0263 1.62201 12.0625 2.17064 12.3885 3.36959C12.6509 4.33454 13.5106 4.76406 13.9912 4.93293L14.2631 5.15456L15.6796 4.82258L15.7705 4.44918C16.0995 4.06019 16.6233 3.25452 16.361 2.28957Z" fill="#E39B74"/>
<path d="M15.2936 4.77059C14.813 4.60168 13.9533 4.17216 13.6909 3.20726C13.4087 2.16943 14.0927 1.61849 14.5176 0.591406C14.3164 0.454593 14.1121 0.295351 13.9116 0.0957609C13.7351 -0.0798094 13.4532 -0.00315315 13.3899 0.237601C13.0263 1.62201 12.0625 2.17064 12.3885 3.36959C12.6509 4.33454 13.5106 4.76406 13.9912 4.93293L14.263 5.15456L15.4293 4.88123L15.2936 4.77059Z" fill="#DD8858"/>
<path d="M16.1132 4.76732C16.049 4.53125 15.8056 4.39186 15.5695 4.45606L14.1687 4.83693C13.9326 4.90113 13.7932 5.14455 13.8574 5.38066L14.571 8.00523L14.8278 8.19232L16.746 7.73492L16.8268 7.3919L16.1132 4.76732Z" fill="#477B9E"/>
<path d="M15.7755 7.76132L15.0142 4.9613C14.979 4.83175 15.0015 4.70036 15.0657 4.59375L14.1687 4.83764C13.9326 4.90184 13.7932 5.14525 13.8574 5.38137L14.571 8.00594L14.8278 8.19303L15.9882 7.91631L15.7755 7.76132Z" fill="#3F6D8E"/>
<path d="M19.951 20.8712C19.9357 19.382 19.7041 17.903 19.2634 16.4805L16.847 8.77818L16.5317 8.55762L15.334 8.82875L15.2549 9.21104L17.0712 17.0765C17.4114 18.5264 17.9606 19.9191 18.7014 21.211L19.0073 21.7444C19.1225 21.9453 19.3587 22.043 19.5821 21.9823C19.8055 21.9215 19.9597 21.7176 19.9573 21.4861L19.951 20.8712Z" fill="#FFD064"/>
<path d="M19.7427 20.7677C19.0019 19.4758 18.4528 18.0831 18.1125 16.6332L16.2962 8.76775L16.3304 8.60254L15.334 8.82808L15.2549 9.21037L17.0712 17.0758C17.4114 18.5257 17.9606 19.9184 18.7014 21.2103L19.0073 21.7438C19.1225 21.9446 19.3587 22.0423 19.5821 21.9816C19.8055 21.9208 19.9597 21.7169 19.9573 21.4854L19.9537 21.1356L19.7427 20.7677Z" fill="#FFC250"/>
<path d="M16.76 7.40392L14.6333 7.9821C14.4326 8.03667 14.3142 8.24357 14.3688 8.44427L14.5252 9.01958C14.5797 9.22025 14.7866 9.33871 14.9873 9.28414L17.114 8.70595C17.3147 8.65138 17.4331 8.44449 17.3786 8.24382L17.2221 7.66852C17.1676 7.46777 16.9606 7.34935 16.76 7.40392Z" fill="#5895B7"/>
<path d="M15.8605 8.6652L15.6935 8.05092C15.655 7.90955 15.6974 7.76556 15.792 7.66699L14.6333 7.982C14.4326 8.03657 14.3142 8.24346 14.3688 8.44417L14.5252 9.01948C14.5797 9.22014 14.7866 9.33861 14.9873 9.28404L16.1893 8.95726C16.0363 8.9344 15.9037 8.82401 15.8605 8.6652Z" fill="#477B9E"/>
</g>
<defs>
<clipPath id="clip0">
<rect width="22" height="22" fill="white"/>
</clipPath>
</defs>
</svg>
