<svg width="22" height="22" viewBox="0 0 22 22" fill="none" xmlns="http://www.w3.org/2000/svg">
<g clip-path="url(#clip0)">
<path d="M13.8965 16.5252C13.9433 16.77 13.7788 17.0052 13.5328 17.0452L3.37401 18.6975C3.06858 18.751 2.77457 18.5463 2.72065 18.2428L0.00858969 2.9752C-0.0453701 2.67136 0.160598 2.37894 0.466296 2.32543L10.2887 0.606151C10.5941 0.552678 10.8881 0.757318 10.942 1.06089L13.8965 16.5252Z" fill="#454D58"/>
<path d="M13.5326 17.0458L4.49707 18.5149L5.4085 16.1494L9.64516 5.14938L11.0338 1.54395L13.8964 16.5256C13.9429 16.7704 13.7787 17.0055 13.5326 17.0458Z" fill="#3A3D41"/>
<path d="M11.394 14.6555C11.439 14.8978 11.2774 15.1303 11.0345 15.1724L4.7253 16.2674C4.52889 16.3023 4.33572 16.1461 4.2961 15.9202L2.30503 4.57406C2.26546 4.34857 2.39352 4.13561 2.58957 4.10077L8.89684 2.98046C9.09325 2.94558 9.28642 3.10183 9.32604 3.32772L9.94297 6.84316L11.394 14.6555Z" fill="#9C000D"/>
<path d="M11.0344 15.1729L5.40918 16.1494L9.64583 5.14941L9.94329 6.8439L11.3943 14.6559C11.439 14.8985 11.2775 15.1308 11.0344 15.1729Z" fill="#330101"/>
<path d="M15.6372 21.3655L6.32591 17.8175C6.03593 17.707 5.88985 17.3808 6.00127 17.0927L11.5982 2.61914C11.7094 2.3315 12.0372 2.18644 12.3267 2.29671L21.638 5.84477C21.928 5.95526 22.0741 6.28141 21.9626 6.56957L16.3657 21.0431C16.2545 21.3307 15.9267 21.4758 15.6372 21.3655Z" fill="#4A4D52"/>
<path d="M12.8653 2.50206L6.87313 18.026L6.32601 17.8175C6.03607 17.7073 5.88999 17.3811 6.0011 17.0929L11.598 2.61936C11.7096 2.33163 12.0371 2.18644 12.3266 2.29666L12.8653 2.50206Z" fill="#454D58"/>
<path d="M11.9435 8.51631C12.6634 8.14036 13.4059 8.41331 13.5146 8.45522C14.4679 8.82281 14.7324 9.78337 14.7583 9.88416C14.8572 9.826 15.8164 9.28304 16.8028 9.73902C16.9702 9.81644 17.5702 10.1222 17.8239 10.8029C18.1042 11.5547 17.7757 12.2641 17.6367 12.5643C16.698 14.5913 13.3136 14.6962 12.9194 14.7046C12.6908 14.4882 10.3212 12.1895 10.9115 10.0237C11.0067 9.67434 11.2193 8.89456 11.9435 8.51631Z" fill="#9C000D"/>
<path d="M14.0876 14.6004C13.5033 14.6889 13.0492 14.7022 12.9195 14.7048C12.6906 14.4884 10.3211 12.1901 10.9116 10.0242C11.0068 9.67495 11.2192 8.89499 11.9434 8.51696C12.0921 8.43905 12.2418 8.38903 12.387 8.35938C12.2112 8.69845 12.1218 9.02734 12.0651 9.23539C11.4839 11.3677 13.1855 13.6017 14.0876 14.6004Z" fill="#330101"/>
</g>
<defs>
<clipPath id="clip0">
<rect width="22" height="22" fill="white"/>
</clipPath>
</defs>
</svg>
