<svg width="22" height="22" viewBox="0 0 22 22" fill="none" xmlns="http://www.w3.org/2000/svg">
<g clip-path="url(#clip0)">
<path d="M19.3129 5.05073C19.3129 5.58573 19.6898 6.03218 20.1916 6.13685C20.2903 6.15743 20.3598 6.24634 20.3598 6.34714V7.72021C20.3598 7.82101 20.2903 7.90991 20.1916 7.9305C19.6898 8.03517 19.3129 8.48161 19.3129 9.01662C19.3129 9.55162 19.6898 9.99807 20.1916 10.1027C20.2903 10.1233 20.3598 10.2122 20.3598 10.313V11.6866C20.3598 11.7874 20.2903 11.8763 20.1916 11.8969C19.6898 12.0015 19.3129 12.448 19.3129 12.983C19.3129 13.518 19.6898 13.9644 20.1916 14.0691C20.2903 14.0897 20.3598 14.1786 20.3598 14.2794V15.6524C20.3598 15.7532 20.2903 15.8421 20.1916 15.8627C19.6898 15.9674 19.3129 16.4138 19.3129 16.9488C19.3129 17.4838 19.6898 17.9303 20.1916 18.0349C20.2903 18.0555 20.3598 18.1444 20.3598 18.2452V21.4625C20.3598 21.5816 20.2632 21.6783 20.144 21.6783H19.1129C19.0095 21.6783 18.9191 21.6052 18.9012 21.5034C18.8097 20.9835 18.3577 20.5888 17.8137 20.5888C17.2697 20.5888 16.8177 20.9835 16.7263 21.5034C16.7084 21.6052 16.618 21.6783 16.5146 21.6783H15.1635C15.0601 21.6783 14.9697 21.6052 14.9518 21.5034C14.8604 20.9835 14.4084 20.5888 13.8644 20.5888C13.3204 20.5888 12.8684 20.9835 12.7769 21.5034C12.759 21.6052 12.6686 21.6783 12.5653 21.6783H11.2137C11.1103 21.6783 11.0199 21.6052 11.002 21.5034C10.9105 20.9835 10.4586 20.5888 9.91457 20.5888C9.37059 20.5888 8.91856 20.9835 8.82712 21.5034C8.8092 21.6052 8.7188 21.6783 8.61546 21.6783H7.26435C7.16096 21.6783 7.07056 21.6052 7.05268 21.5034C6.96125 20.9835 6.50921 20.5888 5.96523 20.5888C5.42125 20.5888 4.96922 20.9835 4.87778 21.5034C4.85986 21.6052 4.76945 21.6783 4.66611 21.6783H3.63473C3.51558 21.6783 3.41895 21.5817 3.41895 21.4625V18.2452C3.41895 18.1444 3.48838 18.0555 3.58708 18.0349C4.08887 17.9303 4.46584 17.4838 4.46584 16.9488C4.46584 16.4138 4.08887 15.9674 3.58708 15.8627C3.48843 15.8421 3.41895 15.7532 3.41895 15.6524V14.2794C3.41895 14.1786 3.48838 14.0897 3.58708 14.0691C4.08887 13.9644 4.46584 13.518 4.46584 12.983C4.46584 12.448 4.08887 12.0015 3.58708 11.8969C3.48843 11.8763 3.41895 11.7874 3.41895 11.6866V10.313C3.41895 10.2122 3.48843 10.1233 3.58708 10.1027C4.08887 9.99807 4.46584 9.55162 4.46584 9.01662C4.46584 8.48161 4.08887 8.03517 3.58708 7.9305C3.48843 7.90991 3.41895 7.82101 3.41895 7.72021V6.34714C3.41895 6.24634 3.48838 6.15743 3.58708 6.13685C4.08887 6.03218 4.46584 5.58573 4.46584 5.05073C4.46584 4.51573 4.08887 4.06928 3.58708 3.96461C3.48843 3.94403 3.41895 3.85512 3.41895 3.75432V0.537078C3.41895 0.417926 3.51554 0.321289 3.63473 0.321289H4.66586C4.76924 0.321289 4.85964 0.394336 4.87752 0.496172C4.96896 1.01609 5.42099 1.41076 5.96497 1.41076C6.50896 1.41076 6.96099 1.01609 7.05243 0.496172C7.07034 0.394379 7.16075 0.321289 7.26409 0.321289H8.6152C8.71858 0.321289 8.80899 0.394336 8.82686 0.496172C8.9183 1.01609 9.37033 1.41076 9.91432 1.41076C10.4583 1.41076 10.9103 1.01609 11.0018 0.496172C11.0197 0.394379 11.1101 0.321289 11.2134 0.321289H12.565C12.6684 0.321289 12.7588 0.394336 12.7767 0.496172C12.8682 1.01609 13.3201 1.41076 13.8641 1.41076C14.4081 1.41076 14.8601 1.01609 14.9516 0.496172C14.9695 0.394379 15.0599 0.321289 15.1633 0.321289H16.5144C16.6177 0.321289 16.7081 0.394336 16.726 0.496172C16.8175 1.01609 17.2695 1.41076 17.8135 1.41076C18.3575 1.41076 18.8095 1.01609 18.9009 0.496172C18.9188 0.394379 19.0093 0.321289 19.1126 0.321289H20.1437C20.2629 0.321289 20.3595 0.417883 20.3595 0.537078V3.75432C20.3595 3.85512 20.2901 3.94403 20.1914 3.96461C19.6898 4.06928 19.3129 4.51573 19.3129 5.05073Z" fill="#FF5757"/>
<path d="M19.3128 5.05073C19.3128 5.58586 19.6896 6.03209 20.1915 6.13694C20.2903 6.15765 20.3594 6.24655 20.3594 6.3471V7.72029C20.3594 7.82084 20.2903 7.90974 20.1915 7.93045C19.6896 8.03534 19.3128 8.48157 19.3128 9.01666C19.3128 9.55179 19.6896 9.99802 20.1915 10.1029C20.2903 10.1232 20.3594 10.2121 20.3594 10.3131V11.6867C20.3594 11.7873 20.2903 11.8762 20.1915 11.8969C19.6896 12.0014 19.3128 12.448 19.3128 12.9831C19.3128 13.5178 19.6896 13.9645 20.1915 14.069C20.2903 14.0897 20.3594 14.1786 20.3594 14.2796V15.6523C20.3594 15.7533 20.2903 15.8422 20.1915 15.8629C19.6896 15.9673 19.3128 16.414 19.3128 16.9487C19.3128 17.4838 19.6896 17.9301 20.1915 18.0349C20.2903 18.0556 20.3594 18.1445 20.3594 18.2451V21.4623C20.3594 21.5814 20.2631 21.6781 20.1436 21.6781H19.1126C19.0897 21.6781 19.0672 21.6747 19.0465 21.6678C19.1329 21.6393 19.1954 21.5582 19.1954 21.4623V18.2451C19.1954 18.1445 19.1259 18.0556 19.0271 18.0349C18.5252 17.93 18.1484 17.4838 18.1484 16.9487C18.1484 16.414 18.5252 15.9673 19.0271 15.8629C19.1259 15.8422 19.1954 15.7533 19.1954 15.6523V14.2796C19.1954 14.1786 19.1259 14.0897 19.0271 14.069C18.5252 13.9645 18.1484 13.5178 18.1484 12.9831C18.1484 12.448 18.5252 12.0014 19.0271 11.8969C19.1259 11.8762 19.1954 11.7873 19.1954 11.6867V10.3131C19.1954 10.2121 19.1259 10.1232 19.0271 10.1029C18.5252 9.99802 18.1484 9.55179 18.1484 9.01666C18.1484 8.48153 18.5252 8.0353 19.0271 7.93045C19.1259 7.90974 19.1954 7.82084 19.1954 7.72029V6.3471C19.1954 6.24655 19.1259 6.15765 19.0271 6.13694C18.5252 6.03205 18.1484 5.58582 18.1484 5.05073C18.1484 4.51603 18.5252 4.06937 19.0271 3.96491C19.1259 3.9442 19.1954 3.8553 19.1954 3.75432V0.537078C19.1954 0.441258 19.1329 0.360133 19.0465 0.331645C19.0672 0.324727 19.0897 0.321289 19.1126 0.321289H20.1436C20.2631 0.321289 20.3594 0.417969 20.3594 0.537078V3.75436C20.3594 3.85534 20.2903 3.94424 20.1915 3.96495C19.6896 4.06937 19.3128 4.51603 19.3128 5.05073Z" fill="#F72C2C"/>
<path d="M17.6351 19.0486H6.14467C6.00167 19.0486 5.88574 18.9327 5.88574 18.7897V3.2101C5.88574 3.0671 6.00167 2.95117 6.14467 2.95117H17.6351C17.7781 2.95117 17.894 3.0671 17.894 3.2101V18.7897C17.894 18.9327 17.7781 19.0486 17.6351 19.0486Z" fill="#C9F0FF"/>
<path d="M17.8942 3.21108V18.7908C17.8942 18.9336 17.7781 19.0497 17.6353 19.0497H16.6436C16.7864 19.0497 16.9025 18.9336 16.9025 18.7908V3.21108C16.9025 3.06825 16.7864 2.95215 16.6436 2.95215H17.6353C17.7781 2.95215 17.8942 3.06825 17.8942 3.21108Z" fill="#9AE7FD"/>
<path d="M17.8842 13.9058L15.0149 10.6721C14.8524 10.489 14.5693 10.4806 14.3963 10.6536L12.7757 12.2733L10.609 9.83147C10.4465 9.64838 10.1634 9.63992 9.99033 9.81296L5.89554 13.9058H5.88574V18.7895C5.88574 18.9325 6.00167 19.0484 6.14467 19.0484H17.6351C17.7781 19.0484 17.894 18.9325 17.894 18.7895V13.9058H17.8842Z" fill="#A3E72D"/>
<path d="M14.8307 8.59295C15.8169 8.59295 16.6164 7.79345 16.6164 6.80722C16.6164 5.82098 15.8169 5.02148 14.8307 5.02148C13.8444 5.02148 13.0449 5.82098 13.0449 6.80722C13.0449 7.79345 13.8444 8.59295 14.8307 8.59295Z" fill="#FFCD6B"/>
<path d="M16.6159 6.80735C16.6159 7.79344 15.8162 8.59313 14.8301 8.59313C14.3135 8.59313 13.8483 8.3739 13.5225 8.02302C13.6916 8.07652 13.872 8.10501 14.0589 8.10501C15.045 8.10501 15.8442 7.30532 15.8442 6.31923C15.8442 5.84928 15.663 5.42247 15.3661 5.10352C16.0902 5.33099 16.6159 6.00809 16.6159 6.80735Z" fill="#FFB509"/>
<path d="M17.8942 13.9063V18.7903C17.8942 18.9331 17.7781 19.0492 17.6353 19.0492H16.6436C16.7864 19.0492 16.9025 18.9331 16.9025 18.7903V12.7998L17.8843 13.9063H17.8942Z" fill="#80CF00"/>
<path d="M20.2571 4.27969C20.5029 4.22847 20.6813 4.00765 20.6813 3.75457V0.537324C20.6813 0.241055 20.4402 0 20.1439 0H19.1128C18.8515 0 18.6293 0.18541 18.5844 0.440687C18.5183 0.816578 18.1941 1.08939 17.8136 1.08939C17.4331 1.08939 17.109 0.816578 17.0429 0.440687C16.998 0.185324 16.7757 0 16.5145 0H15.1634C14.9022 0 14.68 0.185324 14.635 0.44073C14.5688 0.816621 14.2447 1.08939 13.8642 1.08939C13.4838 1.08939 13.1596 0.816535 13.0935 0.440816C13.0486 0.18541 12.8264 0 12.5651 0H11.2135C10.9522 0 10.7301 0.185324 10.6851 0.44073C10.6189 0.816621 10.2948 1.08939 9.9143 1.08939C9.53381 1.08939 9.2097 0.816578 9.14357 0.440687C9.09867 0.185324 8.87643 0 8.61518 0H7.26407C7.00274 0 6.78055 0.18541 6.73569 0.440687C6.66952 0.816578 6.3454 1.08939 5.96491 1.08939C5.58443 1.08939 5.26031 0.816578 5.19418 0.440687C5.14928 0.185324 4.92705 0 4.6658 0H3.63468C3.33841 0 3.09735 0.241055 3.09735 0.537324V3.75457C3.09735 4.00761 3.27571 4.22843 3.52137 4.27964C3.88226 4.35493 4.1442 4.67934 4.1442 5.05098C4.1442 5.42261 3.88226 5.74698 3.52141 5.82231C3.27571 5.87353 3.09735 6.09434 3.09735 6.34739V7.72045C3.09735 7.9735 3.27571 8.19431 3.52137 8.24553C3.88226 8.32081 4.1442 8.64523 4.1442 9.01691C4.1442 9.38854 3.88226 9.71291 3.52128 9.7882C3.27563 9.8395 3.09735 10.0603 3.09735 10.3133V11.6868C3.09735 11.9398 3.27563 12.1606 3.52137 12.2119C3.88226 12.2872 4.1442 12.6115 4.1442 12.9832C4.1442 13.3548 3.88226 13.6792 3.52141 13.7546C3.27571 13.8058 3.09735 14.0266 3.09735 14.2796V14.5451C2.74582 14.3865 2.31046 14.2512 1.63994 14.2512C1.4623 14.2512 1.31836 14.3952 1.31836 14.5728C1.31836 14.7504 1.4623 14.8944 1.63994 14.8944C2.35833 14.8944 2.71106 15.0617 3.09735 15.2611V15.6527C3.09735 15.7358 3.1169 15.8153 3.15149 15.8866C2.79043 15.7175 2.34527 15.5679 1.63994 15.5679C1.4623 15.5679 1.31836 15.7118 1.31836 15.8895C1.31836 16.0671 1.4623 16.211 1.63994 16.211C2.38944 16.211 2.74084 16.3931 3.14767 16.6038C3.42121 16.7455 3.71868 16.8994 4.14244 16.9898C4.13096 17.2116 4.02681 17.4133 3.86495 17.5511C3.71868 17.4914 3.58423 17.4222 3.44346 17.3493C3.02289 17.1314 2.54606 16.8844 1.63994 16.8844C1.4623 16.8844 1.31836 17.0284 1.31836 17.206C1.31836 17.3837 1.4623 17.5276 1.63994 17.5276C2.38944 17.5276 2.74084 17.7096 3.14767 17.9203C3.16202 17.9278 3.17641 17.9352 3.19094 17.9427C3.13168 18.0297 3.09735 18.1344 3.09735 18.2454V21.4627C3.09735 21.759 3.33841 22 3.63468 22H4.6658C4.92705 22 5.14924 21.8147 5.19423 21.5593C5.26036 21.1834 5.58447 20.9106 5.96496 20.9106C6.34545 20.9106 6.66956 21.1835 6.73573 21.5592C6.78059 21.8146 7.00278 22 7.26412 22H8.61523C8.87648 22 9.09867 21.8147 9.14366 21.5593C9.20978 21.1834 9.5339 20.9106 9.91439 20.9106C10.2949 20.9106 10.619 21.1834 10.6852 21.5594C10.7301 21.8147 10.9523 22 11.2135 22H12.5652C12.8265 22 13.0487 21.8146 13.0936 21.5593C13.1597 21.1834 13.4838 20.9106 13.8643 20.9106C14.2448 20.9106 14.5689 21.1834 14.6351 21.5594C14.68 21.8147 14.9022 22 15.1635 22H16.5146C16.7759 22 16.998 21.8147 17.043 21.5593C17.1092 21.1834 17.4333 20.9106 17.8138 20.9106C18.1943 20.9106 18.5184 21.1835 18.5845 21.5592C18.6294 21.8146 18.8516 22 19.1129 22H20.144C20.4404 22 20.6814 21.7589 20.6814 21.4626L20.6812 20.3469C20.6812 20.1693 20.5372 20.0254 20.3596 20.0254C20.1819 20.0255 20.038 20.1694 20.038 20.347L20.0383 21.3569H19.1989C19.0443 20.7203 18.4759 20.2675 17.8138 20.2675C17.1516 20.2675 16.5832 20.7203 16.4286 21.3569H15.2495C15.095 20.7203 14.5265 20.2675 13.8644 20.2675C13.2023 20.2675 12.6338 20.7203 12.4792 21.3569H11.2997C11.1451 20.7203 10.5767 20.2675 9.91447 20.2675C9.25232 20.2675 8.68389 20.7203 8.52933 21.3569H7.35023C7.19562 20.7203 6.62723 20.2675 5.96509 20.2675C5.30294 20.2675 4.73446 20.7203 4.57995 21.3569H3.74051V18.3287C3.80973 18.3096 3.8765 18.2851 3.94083 18.2563C4.21153 18.3333 4.53625 18.3852 4.9512 18.3852C5.18095 18.3852 5.38299 18.3692 5.56359 18.342V18.7898C5.56359 19.11 5.82398 19.3704 6.14409 19.3704H17.6345C17.9547 19.3704 18.215 19.11 18.215 18.7898V3.2102C18.215 2.89008 17.9547 2.62969 17.6345 2.62969H8.92834C8.75071 2.62969 8.60676 2.77363 8.60676 2.95127C8.60676 3.1289 8.75071 3.27284 8.92834 3.27284H17.5719V13.0702L15.2548 10.459C15.1188 10.3057 14.9234 10.2144 14.7186 10.2082C14.5126 10.2018 14.3132 10.2816 14.1683 10.4265L12.7892 11.805L10.8489 9.61834C10.7129 9.46507 10.5175 9.37368 10.3127 9.36757C10.1086 9.3616 9.90734 9.44096 9.76245 9.58586L6.20679 13.1398V3.27284H7.52859C7.70622 3.27284 7.85017 3.1289 7.85017 2.95127C7.85017 2.77363 7.70622 2.62969 7.52859 2.62969H6.14418C5.82406 2.62969 5.56367 2.89008 5.56367 3.2102V15.0575C5.39034 15.0899 5.19139 15.1087 4.95128 15.1087C4.38624 15.1087 4.04748 15.0052 3.74059 14.864V14.3628C4.35234 14.1936 4.78748 13.6273 4.78748 12.9831C4.78748 12.3389 4.3523 11.7726 3.74059 11.6035V10.3964C4.3523 10.2272 4.78748 9.66096 4.78748 9.01682C4.78748 8.37263 4.35234 7.80635 3.74059 7.63714V6.43057C4.3523 6.26136 4.78748 5.69512 4.78748 5.05093C4.78748 4.40675 4.35234 3.84046 3.74059 3.67129V0.643156H4.5799C4.73446 1.27974 5.30289 1.73259 5.96504 1.73259C6.62715 1.73259 7.19554 1.27978 7.35018 0.643156H8.52929C8.68385 1.27974 9.25228 1.73259 9.91443 1.73259C10.5766 1.73259 11.1451 1.2797 11.2996 0.643156H12.4792C12.6338 1.27974 13.2022 1.73259 13.8643 1.73259C14.5265 1.73259 15.095 1.2797 15.2495 0.643156H16.4286C16.5831 1.27974 17.1516 1.73259 17.8137 1.73259C18.4758 1.73259 19.0442 1.27978 19.1989 0.643156H20.0382V3.67134C19.4264 3.84046 18.9913 4.40675 18.9913 5.05098C18.9913 5.69512 19.4264 6.26141 20.0382 6.43062V7.63718C19.4264 7.8063 18.9913 8.37259 18.9913 9.01686C18.9913 9.66105 19.4265 10.2274 20.0382 10.3965V11.6035C19.4264 11.7727 18.9913 12.339 18.9913 12.9831C18.9913 13.6272 19.4264 14.1936 20.0382 14.3628V15.5694C19.4264 15.7385 18.9913 16.3048 18.9913 16.949C18.9913 17.5932 19.4264 18.1595 20.0382 18.3287V18.9262C20.0382 19.1038 20.1822 19.2478 20.3598 19.2478C20.5374 19.2478 20.6814 19.1038 20.6814 18.9262V18.2454C20.6814 17.9923 20.503 17.7715 20.2573 17.7204C19.8964 17.6451 19.6345 17.3207 19.6345 16.949C19.6345 16.5774 19.8964 16.253 20.2574 16.1777C20.503 16.1264 20.6814 15.9056 20.6814 15.6526V14.2795C20.6814 14.0265 20.503 13.8056 20.2574 13.7545C19.8964 13.6791 19.6345 13.3548 19.6345 12.9831C19.6345 12.6115 19.8964 12.2871 20.2574 12.2118C20.503 12.1605 20.6814 11.9397 20.6814 11.6867V10.3132C20.6814 10.0602 20.503 9.83941 20.2573 9.78811C19.8964 9.71283 19.6345 9.38846 19.6345 9.01682C19.6345 8.64518 19.8964 8.32073 20.2572 8.24549C20.503 8.19427 20.6814 7.97345 20.6814 7.72037V6.3473C20.6814 6.09421 20.503 5.8734 20.2573 5.82222C19.8964 5.74694 19.6345 5.42257 19.6345 5.05089C19.6345 4.67921 19.8963 4.35493 20.2571 4.27969ZM4.95115 17.742C4.80678 17.742 4.67744 17.7351 4.55936 17.7227C4.68402 17.5288 4.76299 17.304 4.78254 17.0655C4.83707 17.0674 4.89323 17.0685 4.9512 17.0685C5.18095 17.0685 5.38299 17.0526 5.56359 17.0253V17.6908C5.39025 17.7231 5.1913 17.742 4.95115 17.742ZM6.2067 14.0491L10.217 10.0407C10.2446 10.0132 10.2763 10.0094 10.2934 10.0104C10.3101 10.0109 10.3419 10.0161 10.3678 10.0452L12.804 12.7907C12.9219 12.9236 13.1251 12.9357 13.258 12.8178C13.3908 12.6999 13.403 12.4967 13.2851 12.3639L13.2167 12.2869L14.6229 10.8814C14.6504 10.8539 14.6822 10.8504 14.6993 10.851C14.716 10.8515 14.7478 10.8567 14.7737 10.8858L17.5718 14.0392V18.7271H6.2067V18.1751C6.41347 18.0969 6.58856 18.0064 6.75477 17.9203C7.16168 17.7096 7.51304 17.5276 8.26254 17.5276C9.01204 17.5276 9.3634 17.7096 9.77031 17.9203C10.1909 18.1381 10.6678 18.3851 11.5739 18.3851C11.7516 18.3851 11.8955 18.2411 11.8955 18.0635C11.8955 17.8859 11.7516 17.7419 11.5739 17.7419C10.8244 17.7419 10.473 17.5599 10.0661 17.3492C9.64544 17.1313 9.16871 16.8844 8.26254 16.8844C7.35637 16.8844 6.87959 17.1313 6.45897 17.3492C6.37389 17.3933 6.29109 17.4359 6.2067 17.4761V16.8585C6.41347 16.7804 6.58856 16.6898 6.75477 16.6037C7.16168 16.393 7.51304 16.211 8.26254 16.211C9.01204 16.211 9.3634 16.393 9.77031 16.6037C10.1909 16.8216 10.6678 17.0685 11.5739 17.0685C11.7516 17.0685 11.8955 16.9246 11.8955 16.7469C11.8955 16.5693 11.7516 16.4254 11.5739 16.4254C10.8244 16.4254 10.473 16.2433 10.0661 16.0326C9.64544 15.8148 9.16871 15.5679 8.26254 15.5679C7.35637 15.5679 6.87959 15.8148 6.45897 16.0326C6.37389 16.0767 6.29109 16.1193 6.2067 16.1595V15.5419C6.41347 15.4638 6.58856 15.3732 6.75477 15.2871C7.16168 15.0764 7.51304 14.8944 8.26254 14.8944C9.01204 14.8944 9.3634 15.0764 9.77031 15.2871C10.1909 15.505 10.6678 15.7519 11.5739 15.7519C11.7516 15.7519 11.8955 15.608 11.8955 15.4303C11.8955 15.2527 11.7516 15.1088 11.5739 15.1088C10.8244 15.1088 10.473 14.9267 10.0661 14.716C9.64544 14.4981 9.16871 14.2512 8.26254 14.2512C7.35637 14.2512 6.87959 14.4981 6.45897 14.716C6.37389 14.7601 6.29109 14.8027 6.2067 14.8429V14.0491ZM4.95115 15.7519C5.18091 15.7519 5.38295 15.7359 5.56354 15.7087V16.3742C5.39021 16.4065 5.19126 16.4254 4.95115 16.4254C4.85593 16.4254 4.76725 16.4224 4.68393 16.4168C4.5203 16.0102 4.17501 15.6895 3.74046 15.5694V15.5584C4.04902 15.6697 4.42861 15.7519 4.95115 15.7519Z" fill="black"/>
<path d="M16.9373 6.80849C16.9373 5.64653 15.992 4.70117 14.83 4.70117C13.668 4.70117 12.7227 5.64648 12.7227 6.80849C12.7227 7.97049 13.668 8.91585 14.83 8.91585C15.992 8.91585 16.9373 7.97049 16.9373 6.80849ZM13.3659 6.80849C13.3659 6.00115 14.0227 5.34433 14.83 5.34433C15.6374 5.34433 16.2942 6.00115 16.2942 6.80849C16.2942 7.61587 15.6374 8.27269 14.83 8.27269C14.0227 8.27269 13.3659 7.61587 13.3659 6.80849Z" fill="black"/>
</g>
<defs>
<clipPath id="clip0">
<rect width="22" height="22" fill="white"/>
</clipPath>
</defs>
</svg>
