<svg width="36" height="36" viewBox="0 0 36 36" fill="none" xmlns="http://www.w3.org/2000/svg">
<path d="M21.9214 21.6975C23.1294 21.6975 24.1132 20.678 24.1132 19.4207C24.1132 18.1718 23.1345 17.1523 21.9214 17.1523V17.1574C20.7184 17.1574 19.7329 18.1735 19.7295 19.4309C19.7295 20.678 20.7133 21.6975 21.9214 21.6975Z" fill="#5C6BC0"/>
<path d="M14.0756 21.6975C15.2837 21.6975 16.2675 20.678 16.2675 19.4207C16.2675 18.1718 15.2905 17.1523 14.0824 17.1523L14.0756 17.1574C12.8676 17.1574 11.8838 18.1735 11.8838 19.4309C11.8838 20.678 12.8676 21.6975 14.0756 21.6975Z" fill="#5C6BC0"/>
<path fill-rule="evenodd" clip-rule="evenodd" d="M18 35.9996C27.9411 35.9996 36 27.9401 36 17.9982C36 8.17006 28.1244 0.181461 18.3404 0L17.6531 0.000122985C7.87205 0.185036 0 8.17226 0 17.9982C0 27.9401 8.05887 35.9996 18 35.9996ZM21.5599 9.67473L21.616 9.65434H21.5803L21.5599 9.67473ZM14.6513 9.65264C14.6513 9.65264 11.7645 9.54389 8.65002 11.8107C8.65002 11.8107 5.53554 17.1531 5.53554 23.7394C5.53554 23.7394 7.26184 26.6961 11.9956 26.8082C11.9956 26.8082 12.6871 25.9025 13.3854 25.1056C10.7263 24.3103 9.69157 22.7198 9.69157 22.7198C9.69157 22.7198 9.92265 22.832 10.2693 23.0597H10.3712C10.4209 23.0597 10.4449 23.0823 10.4702 23.1063C10.4718 23.1077 10.4733 23.1092 10.4749 23.1107V23.1209C10.5021 23.1481 10.5258 23.1718 10.5785 23.1718C16.2315 25.4658 20.9567 25.996 26.348 22.6009C26.348 22.6009 25.3115 24.1914 22.542 24.9866C23.1129 25.7785 23.9149 26.6859 23.9149 26.6859C27.7949 26.6023 29.7311 24.6023 30.3611 23.9516C30.5 23.8081 30.5754 23.7303 30.5941 23.753C30.5941 17.1769 27.4609 11.8243 27.4609 11.8243C24.6608 9.77668 22.0441 9.68492 21.5497 9.68322L21.2337 9.99419C24.8103 11.0137 26.5417 12.6059 26.5417 12.6059C17.8536 8.32962 10.58 11.8922 9.48441 12.4288C9.40413 12.4682 9.35702 12.4912 9.34495 12.4938C9.34495 12.4938 11.073 10.7911 14.8841 9.88204L14.6513 9.65264Z" fill="#5C6BC0"/>
</svg>
