<svg width="22" height="22" viewBox="0 0 22 22" fill="none" xmlns="http://www.w3.org/2000/svg">
<g clip-path="url(#clip0)">
<path d="M6.65545 3.62329V3.53056C6.65545 3.16309 6.35759 2.86523 5.99012 2.86523H4.73564C4.36817 2.86523 4.07031 3.16309 4.07031 3.53056V3.57637L6.65545 3.62329Z" fill="#EDC963"/>
<path d="M17.9299 3.57637V3.53056C17.9299 3.16309 17.632 2.86523 17.2645 2.86523H16.0101C15.6426 2.86523 15.3447 3.16309 15.3447 3.53056V3.62329L17.9299 3.57637Z" fill="#EDC963"/>
<path d="M17.9299 4.37473V3.57633C17.5447 3.44485 17.1319 3.37305 16.7022 3.37305C16.2238 3.37305 15.7662 3.46169 15.3447 3.62321V4.42161L17.9299 4.37473Z" fill="#E7B93E"/>
<path d="M5.29798 4.17148C5.77639 4.17148 6.23397 4.26013 6.65545 4.42169V3.53056C6.65545 3.16309 6.35759 2.86523 5.99012 2.86523H4.73564C4.36817 2.86523 4.07031 3.16309 4.07031 3.53056V4.37477C4.45544 4.24329 4.86824 4.17148 5.29798 4.17148Z" fill="#EDC963"/>
<path d="M6.65545 4.42157V3.62321C6.23397 3.46165 5.77643 3.37305 5.29798 3.37305C4.86824 3.37305 4.45544 3.44485 4.07031 3.57633V4.37473L6.65545 4.42157Z" fill="#E7B93E"/>
<path d="M1.45243 18.4642C3.44511 19.3478 4.42011 18.0233 4.85611 16.7306L5.91014 13.5922C5.91018 13.5922 5.91022 13.5922 5.91027 13.5923L5.91022 13.5922L6.13993 13.3074C6.13993 13.3074 6.79005 13.6593 7.34237 13.6593C8.00104 13.6593 8.59818 13.3973 9.03637 12.9723C9.07698 12.933 9.13189 12.9119 9.18844 12.9119H12.8107C12.8672 12.9119 12.9221 12.933 12.9627 12.9723C13.401 13.3973 13.9981 13.6593 14.6567 13.6593C15.209 13.6593 15.8592 13.3074 15.8592 13.3074L16.0889 13.5922L17.1424 16.729C17.5775 18.0229 19.2858 19.0629 20.5466 18.5395C21.3091 18.223 21.9653 17.2704 21.9653 16.3776L20.4671 7.45552L20.4661 7.45629C20.2148 5.60116 18.6257 4.1709 16.7017 4.1709C15.6157 4.1709 14.6369 4.62718 13.9446 5.35787H8.05441C7.36214 4.62718 6.38339 4.1709 5.29732 4.1709C3.37326 4.1709 1.78428 5.60116 1.53295 7.45629L1.53196 7.45552L0.0322266 16.3864L0.0337305 16.3775C-0.000472654 17.4769 0.689863 18.1477 1.45243 18.4642Z" fill="#454D58"/>
<path d="M1.45291 18.1534C0.690342 17.8369 0.168315 17.1558 0.0342091 16.377L0.0327052 16.3858C-0.148924 17.4675 0.439877 18.5314 1.45287 18.9518C2.71396 19.4752 4.15453 18.8204 4.58924 17.526L4.85659 16.7299C4.42059 18.0227 2.71322 18.6765 1.45291 18.1534Z" fill="#3C434C"/>
<path d="M21.9655 16.3779C21.8314 17.1567 21.3094 17.8379 20.5468 18.1544C19.2859 18.6777 17.5777 18.0232 17.1426 16.7293L17.4104 17.527C17.8452 18.8213 19.2857 19.4762 20.5468 18.9528C21.5598 18.5323 22.1486 17.4684 21.9669 16.3868L21.9655 16.3779Z" fill="#3C434C"/>
<path d="M15.9172 13.0782C15.8704 12.9389 15.7033 12.8826 15.5822 12.9656C15.3082 13.1533 15.0781 13.2601 14.6577 13.2601C13.999 13.2601 13.4019 12.9982 12.9637 12.5732C12.9231 12.5338 12.8682 12.5127 12.8116 12.5127H9.18939C9.13285 12.5127 9.07793 12.5338 9.03733 12.5732C8.59909 12.9982 8.00195 13.2601 7.34328 13.2601C6.92283 13.2601 6.69286 13.1533 6.4189 12.9656C6.29772 12.8826 6.13062 12.9389 6.08382 13.0782L5.91113 13.5923C6.31306 13.8852 6.80781 14.0585 7.34324 14.0585C8.03259 14.0585 8.65456 13.7716 9.09748 13.3111H12.9034C13.3463 13.7716 13.9683 14.0585 14.6576 14.0585C15.1931 14.0585 15.6879 13.8852 16.0898 13.5922L15.9172 13.0782Z" fill="#3C434C"/>
<path d="M6.46289 11.2536C6.46289 11.6495 6.99171 12.2961 7.42599 12.2961C7.86028 12.2961 8.38909 11.6464 8.38909 11.2536C8.23239 10.876 7.86028 10.6104 7.42599 10.6104C6.99171 10.6104 6.61955 10.876 6.46289 11.2536Z" fill="#DAD8DB"/>
<path d="M6.43824 7.35301H6.03025V6.94506C6.03025 6.55525 5.71425 6.23926 5.32444 6.23926C4.93463 6.23926 4.61864 6.55525 4.61864 6.94506V7.35301H4.21069C3.82088 7.35301 3.50488 7.669 3.50488 8.05881C3.50488 8.44863 3.82088 8.76462 4.21069 8.76462H4.61864V9.17256C4.61864 9.56238 4.93463 9.87837 5.32444 9.87837C5.71425 9.87837 6.03025 9.56238 6.03025 9.17256V8.76462H6.43824C6.82805 8.76462 7.14404 8.44863 7.14404 8.05881C7.144 7.669 6.82801 7.35301 6.43824 7.35301Z" fill="#B3E59F"/>
<path d="M6.43824 7.35301H6.03025V6.94506C6.03025 6.55525 5.71425 6.23926 5.32444 6.23926C4.93463 6.23926 4.61864 6.55525 4.61864 6.94506V7.35301H4.21069C3.82088 7.35301 3.50488 7.669 3.50488 8.05881C3.50488 8.44863 3.82088 8.76462 4.21069 8.76462H4.61864V9.17256C4.61864 9.56238 4.93463 9.87837 5.32444 9.87837C5.71425 9.87837 6.03025 9.56238 6.03025 9.17256V8.76462H6.43824C6.82805 8.76462 7.14404 8.44863 7.14404 8.05881C7.144 7.669 6.82801 7.35301 6.43824 7.35301Z" fill="#DAD8DB"/>
<path d="M16.9035 5.78418C16.5521 5.78418 16.2646 6.07164 16.2646 6.423C16.2646 6.77435 16.5521 7.06181 16.9035 7.06181C17.2548 7.06181 17.5423 6.77435 17.5423 6.423C17.5423 6.07164 17.2548 5.78418 16.9035 5.78418Z" fill="#C4DBF9"/>
<path d="M16.9035 5.78418C16.5521 5.78418 16.2646 6.07164 16.2646 6.423C16.2646 6.77435 16.5521 7.06181 16.9035 7.06181C17.2548 7.06181 17.5423 6.77435 17.5423 6.423C17.5423 6.07164 17.2548 5.78418 16.9035 5.78418Z" fill="#B3E59F"/>
<path d="M16.9035 9.05469C16.5521 9.05469 16.2646 9.34215 16.2646 9.6935C16.2646 10.0449 16.5521 10.3323 16.9035 10.3323C17.2548 10.3323 17.5423 10.0449 17.5423 9.6935C17.5423 9.34215 17.2548 9.05469 16.9035 9.05469Z" fill="#BED8FB"/>
<path d="M19.177 8.05776C19.177 7.70641 18.8896 7.41895 18.5382 7.41895C18.1869 7.41895 17.8994 7.70641 17.8994 8.05776C17.8994 8.40912 18.1869 8.69658 18.5382 8.69658C18.8896 8.69654 19.177 8.40907 19.177 8.05776Z" fill="#EDC963"/>
<path d="M15.9065 8.05776C15.9065 7.70641 15.6191 7.41895 15.2677 7.41895C14.9164 7.41895 14.6289 7.70641 14.6289 8.05776C14.6289 8.40912 14.9164 8.69658 15.2677 8.69658C15.6191 8.69654 15.9065 8.40907 15.9065 8.05776Z" fill="#DF667C"/>
<path d="M8.94195 6.43791H13.058C13.4766 6.43791 13.9198 5.74903 13.9198 5.3584H8.08008C8.1102 5.74903 8.52334 6.43791 8.94195 6.43791Z" fill="#A6AEC4"/>
<path d="M7.42621 11.8971C6.99193 11.8971 6.61977 11.6315 6.46311 11.2539C6.41206 11.3769 6.38379 11.5117 6.38379 11.6531C6.38379 12.2288 6.85052 12.6956 7.42625 12.6956C8.00199 12.6956 8.46872 12.2288 8.46872 11.6531C8.46872 11.5117 8.4404 11.3769 8.3894 11.2539C8.23265 11.6315 7.8605 11.8971 7.42621 11.8971Z" fill="#C8C5C9"/>
<path d="M13.6104 11.2536C13.6104 11.6495 14.1392 12.2961 14.5735 12.2961C15.0078 12.2961 15.5366 11.6464 15.5366 11.2536C15.3799 10.876 15.0078 10.6104 14.5735 10.6104C14.1392 10.6104 13.767 10.876 13.6104 11.2536Z" fill="#DAD8DB"/>
<path d="M14.5737 11.8971C14.1394 11.8971 13.7673 11.6315 13.6106 11.2539C13.5595 11.3769 13.5312 11.5117 13.5312 11.6531C13.5312 12.2288 13.998 12.6956 14.5737 12.6956C15.1495 12.6956 15.6162 12.2288 15.6162 11.6531C15.6162 11.5117 15.5879 11.3769 15.5369 11.2539C15.3802 11.6315 15.008 11.8971 14.5737 11.8971Z" fill="#C8C5C9"/>
<path d="M13.0578 6.03873H8.94177C8.52317 6.03873 8.17319 5.74843 8.07991 5.3584H8.05469V5.95C8.05469 6.43993 8.45185 6.83709 8.94177 6.83709H13.0578C13.5477 6.83709 13.9449 6.43993 13.9449 5.95V5.3584H13.9196C13.8264 5.74843 13.4764 6.03873 13.0578 6.03873Z" fill="#959DB0"/>
</g>
<defs>
<clipPath id="clip0">
<rect width="22" height="22" fill="white"/>
</clipPath>
</defs>
</svg>
