<svg width="22" height="22" viewBox="0 0 22 22" fill="none" xmlns="http://www.w3.org/2000/svg">
<g clip-path="url(#clip0)">
<path d="M21.7537 8.6971C23.0266 14.6371 19.2432 20.4848 13.3032 21.7578C7.3632 23.0307 1.51548 19.2473 0.242538 13.3073C-1.03041 7.36732 2.75359 1.5196 8.69298 0.246653C14.633 -1.0269 20.4807 2.7571 21.7537 8.6971Z" fill="#FFCB4C"/>
<path d="M17.8957 5.50737C18.3718 7.72936 16.9565 9.91714 14.7345 10.3932C12.5125 10.8693 10.3247 9.45392 9.84801 7.23192C9.37196 5.00992 10.7873 2.82214 13.0093 2.34609C15.2313 1.87003 17.4197 3.28475 17.8957 5.50737Z" fill="#F4F7F9"/>
<path d="M13.6316 6.92228C14.3191 6.92228 14.8764 6.36495 14.8764 5.67745C14.8764 4.98995 14.3191 4.43262 13.6316 4.43262C12.9441 4.43262 12.3867 4.98995 12.3867 5.67745C12.3867 6.36495 12.9441 6.92228 13.6316 6.92228Z" fill="#292F33"/>
<path d="M8.60913 8.72777C8.8878 10.027 8.05974 11.3061 6.76052 11.5847C5.4613 11.8634 4.18224 11.0353 3.90358 9.73611C3.62491 8.43688 4.45297 7.15783 5.75219 6.87916C7.05141 6.6005 8.33047 7.42855 8.60913 8.72777Z" fill="#F4F7F9"/>
<path d="M6.50543 10.8505C7.14632 10.7132 7.55453 10.0823 7.41719 9.44142C7.27986 8.80053 6.64898 8.39231 6.00809 8.52965C5.3672 8.66699 4.95899 9.29786 5.09633 9.93875C5.23366 10.5796 5.86454 10.9879 6.50543 10.8505Z" fill="#292F33"/>
<path d="M11.3824 12.7946C9.2172 13.2584 7.72731 13.314 5.87626 13.3494C5.45398 13.3586 4.68154 13.6055 4.93759 14.8008C5.4497 17.1909 8.83587 19.5901 12.6633 18.77C16.49 17.9499 18.5959 14.3737 18.0838 11.9836C17.8278 10.7883 17.0211 10.8787 16.6324 11.0449C14.9299 11.7703 13.5475 12.3307 11.3824 12.7946Z" fill="#65471B"/>
<path d="M6.72266 14.6689V18.3356C6.72266 20.1689 7.94488 22.0023 10.3893 22.0023C12.8338 22.0023 14.056 20.1689 14.056 18.3356V14.6689H6.72266Z" fill="#E8596E"/>
<path d="M10.3893 19.4837C10.5733 19.4837 10.7224 19.3346 10.7224 19.1507V15.3037H10.0557V19.1507C10.0563 19.3346 10.2054 19.4837 10.3893 19.4837Z" fill="#DD2F45"/>
<path d="M6.13184 14.5453C6.13184 14.5453 8.05256 14.7586 11.6379 13.9905C15.2233 13.2223 16.888 12.2402 16.888 12.2402C16.888 12.2402 16.2054 14.8863 12.0223 15.7828C7.83928 16.6793 6.13184 14.5453 6.13184 14.5453Z" fill="white"/>
</g>
<defs>
<clipPath id="clip0">
<rect width="22" height="22" fill="white"/>
</clipPath>
</defs>
</svg>
