<svg width="22" height="22" viewBox="0 0 22 22" fill="none" xmlns="http://www.w3.org/2000/svg">
<path d="M7.58617 15.3618C11.7759 15.3618 15.1723 11.9654 15.1723 7.77563C15.1723 3.5859 11.7759 0.189453 7.58617 0.189453C3.39645 0.189453 0 3.5859 0 7.77563C0 11.9654 3.39645 15.3618 7.58617 15.3618Z" fill="#F15A24"/>
<path d="M7.66817 14.2575C7.6851 14.4535 7.84891 14.604 8.04558 14.6042C8.05658 14.6048 8.06758 14.6048 8.07858 14.6042C8.2872 14.5862 8.44172 14.4024 8.42375 14.1938C8.27796 12.452 7.56144 10.807 6.38535 9.5139L7.58624 8.31301L8.8353 9.56207C8.98598 9.70759 9.22613 9.70341 9.37165 9.55273C9.5136 9.40575 9.5136 9.17271 9.37165 9.02573L8.12258 7.77667L9.32765 6.57161C9.7812 6.98401 10.2805 7.34312 10.8157 7.64201C10.9989 7.74381 11.2299 7.67786 11.3317 7.49465C11.4335 7.31145 11.3676 7.0804 11.1844 6.9786C10.7104 6.71432 10.2678 6.39745 9.86475 6.03412L13.2057 2.69393C13.0358 2.50603 12.857 2.32728 12.6694 2.15759L9.32765 5.50082C8.25321 4.30927 7.60852 2.79236 7.49634 1.19187L7.42807 0.239805C7.42536 0.226007 7.42171 0.212447 7.41707 0.199219C7.16748 0.204529 6.92055 0.220839 6.67704 0.250046C6.67438 0.26446 6.67248 0.279016 6.67135 0.293667L6.73962 1.24573C6.86484 3.02777 7.58742 4.71546 8.79054 6.03602L7.58624 7.24033L2.5035 2.15683C2.31537 2.32676 2.13647 2.50579 1.96678 2.69393L7.0499 7.77667L5.84863 8.97794C4.52683 7.77529 2.83805 7.05361 1.0553 6.92967L0.103237 6.86178C0.0885861 6.86272 0.0740302 6.86462 0.0596164 6.86747C0.0304097 7.1106 0.0140994 7.35715 0.00878906 7.60674C0.0221123 7.61129 0.0356252 7.61508 0.0493751 7.61812L1.00144 7.68601C2.60155 7.79791 4.11831 8.44174 5.31039 9.51504L1.96678 12.8594C2.13671 13.047 2.31551 13.2258 2.50312 13.3957L5.84863 10.0525C6.89765 11.2181 7.53669 12.6949 7.66817 14.2575Z" fill="black"/>
<path d="M8.51385 14.2235C7.67629 10.547 9.97775 6.88754 13.6543 6.04998C17.3309 5.21242 20.9903 7.51388 21.8279 11.1905C22.6654 14.867 20.364 18.5264 16.6874 19.364C16.4378 19.4209 16.1852 19.4636 15.9309 19.4921" fill="#E6E6E6"/>
<path d="M21.952 11.9273C21.8303 10.849 21.452 9.81563 20.8486 8.91368C20.6675 8.64712 20.4679 8.39365 20.2512 8.15507H19.724C19.5546 8.15521 19.4059 8.26758 19.3595 8.43044L18.646 10.9267L17.4861 11.5188L15.5516 10.2291V8.73199L17.6659 7.25269C17.7971 7.1608 17.8564 6.99642 17.8142 6.8419L17.6833 6.36321C16.0813 5.73223 14.3005 5.72777 12.6954 6.35069L12.5368 6.82066C12.483 6.9802 12.5408 7.15611 12.6787 7.25269L14.793 8.73199V10.228L12.8521 11.5218L11.2916 10.8975L10.5936 9.15265C10.5589 9.06635 10.4939 8.99566 10.4108 8.95389L9.72086 8.61024C8.91203 9.6815 8.43998 10.9691 8.36483 12.3093C8.35724 12.442 8.34473 12.5748 8.34473 12.7083C8.34473 12.8532 8.35042 12.9969 8.35914 13.1396L8.93379 13.4271C9.07983 13.5 9.25616 13.4713 9.37152 13.3558L11.0913 11.6364L12.5831 12.233L13.2905 14.7088C13.3375 14.8711 13.4861 14.9827 13.655 14.9826H16.5325L17.367 15.8171L16.3512 17.8487C16.2847 17.9817 16.3021 18.1412 16.3956 18.2568L17.1826 19.2309C18.8366 18.7264 20.2346 17.6077 21.0895 16.1046L20.824 15.5717C20.7594 15.4425 20.6271 15.3611 20.4826 15.3619H17.9845L17.1155 14.4929L17.7603 12.2304L18.9384 11.6284L21.0292 13.0224C21.1422 13.0976 21.2869 13.1068 21.4085 13.0463L21.9953 12.7527C21.9953 12.7371 21.9976 12.7223 21.9976 12.7068C21.9972 12.4463 21.982 12.1861 21.952 11.9273Z" fill="#1A1A1A"/>
<path d="M1.49001 18.9455L2.71025 19.8604C4.39793 21.1265 6.45089 21.8109 8.5607 21.8108H9.64629C11.7561 21.8109 13.8091 21.1265 15.4967 19.8604L16.717 18.9455C17.0522 18.6941 17.1201 18.2186 16.8688 17.8834C16.8407 17.846 16.8092 17.8112 16.7746 17.7795L15.6928 16.7876C13.8943 15.1391 11.5432 14.2247 9.1035 14.2246C6.66378 14.2247 4.31268 15.1391 2.51414 16.7876L1.43236 17.7795C1.1236 18.0627 1.10288 18.5426 1.38608 18.8513C1.41775 18.8859 1.45251 18.9174 1.49001 18.9455Z" fill="#FF902A"/>
<path d="M12.5172 18.3963H4.93107C4.72159 18.3963 4.55176 18.2265 4.55176 18.017C4.55176 17.8075 4.72159 17.6377 4.93107 17.6377H12.5172C12.7267 17.6377 12.8965 17.8075 12.8965 18.017C12.8965 18.2265 12.7267 18.3963 12.5172 18.3963Z" fill="#42210B"/>
<path d="M5.68986 19.1548C5.48038 19.1548 5.31055 18.9849 5.31055 18.7754V17.2582C5.31055 17.0487 5.48038 16.8789 5.68986 16.8789C5.89933 16.8789 6.06916 17.0487 6.06916 17.2582V18.7754C6.06916 18.9849 5.89933 19.1548 5.68986 19.1548Z" fill="#42210B"/>
<path d="M7.20646 19.1548C6.99698 19.1548 6.82715 18.9849 6.82715 18.7754V17.2582C6.82715 17.0487 6.99698 16.8789 7.20646 16.8789C7.41593 16.8789 7.58577 17.0487 7.58577 17.2582V18.7754C7.58577 18.9849 7.41593 19.1548 7.20646 19.1548Z" fill="#42210B"/>
<path d="M8.72404 19.1548C8.51456 19.1548 8.34473 18.9849 8.34473 18.7754V17.2582C8.34473 17.0487 8.51456 16.8789 8.72404 16.8789C8.93351 16.8789 9.10334 17.0487 9.10334 17.2582V18.7754C9.10334 18.9849 8.93351 19.1548 8.72404 19.1548Z" fill="#42210B"/>
<path d="M10.2416 19.1548C10.0321 19.1548 9.8623 18.9849 9.8623 18.7754V17.2582C9.8623 17.0487 10.0321 16.8789 10.2416 16.8789C10.4511 16.8789 10.6209 17.0487 10.6209 17.2582V18.7754C10.6209 18.9849 10.4511 19.1548 10.2416 19.1548Z" fill="#42210B"/>
<path d="M11.7582 19.1548C11.5487 19.1548 11.3789 18.9849 11.3789 18.7754V17.2582C11.3789 17.0487 11.5487 16.8789 11.7582 16.8789C11.9677 16.8789 12.1375 17.0487 12.1375 17.2582V18.7754C12.1375 18.9849 11.9677 19.1548 11.7582 19.1548Z" fill="#42210B"/>
</svg>
