<svg width="36" height="36" viewBox="0 0 36 36" fill="none" xmlns="http://www.w3.org/2000/svg">
<path d="M18 36C27.9411 36 36 27.9411 36 18C36 8.05887 27.9411 0 18 0C8.05887 0 0 8.05887 0 18C0 27.9411 8.05887 36 18 36Z" fill="#039BE5"/>
<path d="M8.23641 17.6103L25.5914 10.9188C26.3969 10.6278 27.1004 11.1153 26.8394 12.3333L26.8409 12.3318L23.8859 26.2533C23.6669 27.2403 23.0804 27.4803 22.2599 27.0153L17.7599 23.6988L15.5894 25.7898C15.3494 26.0298 15.1469 26.2323 14.6819 26.2323L15.0014 21.6528L23.3414 14.1183C23.7044 13.7988 23.2604 13.6188 22.7819 13.9368L12.4754 20.4258L8.03241 19.0398C7.06791 18.7338 7.04691 18.0753 8.23641 17.6103Z" fill="white"/>
</svg>
